<?xml version="1.0" standalone="no"?>
<!DOCTYPE svg PUBLIC "-//W3C//DTD SVG 20010904//EN"
 "http://www.w3.org/TR/2001/REC-SVG-20010904/DTD/svg10.dtd">
<svg version="1.0" xmlns="http://www.w3.org/2000/svg"
 width="320.000000pt" height="320.000000pt" viewBox="0 0 320.000000 320.000000"
 preserveAspectRatio="xMidYMid meet">
<metadata>
Created by potrace 1.11, written by Peter Selinger 2001-2013
</metadata>
<g transform="translate(0.000000,320.000000) scale(0.100000,-0.100000)"
fill="#000000" stroke="none">
<path d="M878 2424 c-2 -1 -30 -5 -63 -9 -66 -7 -193 -36 -240 -55 -16 -6 -30
-11 -30 -10 0 4 -63 -22 -87 -36 -16 -8 -28 -12 -28 -9 0 16 -187 -125 -231
-174 -88 -99 -136 -227 -124 -336 5 -49 33 -146 44 -155 4 -3 17 -18 29 -34
82 -106 226 -237 300 -271 159 -74 343 -122 485 -128 15 0 27 -5 27 -11 0 -8
3 -8 8 -1 4 6 45 11 92 11 80 1 218 12 230 19 3 2 22 6 43 9 21 3 68 16 105
28 37 12 69 23 72 23 3 1 23 9 45 19 38 17 42 17 95 -1 30 -10 58 -19 63 -19
4 -1 9 -3 12 -4 3 -1 8 -3 13 -4 4 -1 23 -6 42 -11 19 -4 46 -9 60 -11 14 -1
25 -3 25 -4 0 -3 111 -11 170 -12 65 -1 205 8 245 17 14 3 41 8 60 11 62 10
189 46 250 71 8 3 21 5 28 4 6 -1 12 3 12 9 0 5 5 10 10 10 15 0 105 43 108
52 2 4 8 8 14 8 5 0 28 13 51 29 23 16 45 28 48 27 15 -3 164 157 199 214 136
225 54 460 -208 594 -38 19 -214 77 -220 72 -2 -3 -14 -1 -27 4 -68 26 -363
28 -480 3 -11 -2 -35 -6 -54 -8 -18 -3 -36 -7 -40 -10 -4 -2 -23 -7 -41 -10
-18 -3 -57 -14 -86 -25 -30 -10 -54 -16 -54 -14 0 2 -18 -5 -40 -16 -22 -11
-40 -18 -40 -16 0 2 -17 -4 -37 -14 -36 -17 -39 -17 -63 0 -23 17 -188 100
-193 98 -2 -1 -73 20 -97 29 -8 3 -22 7 -30 8 -8 2 -55 10 -105 20 -72 13
-357 29 -367 19z m332 -78 c14 -4 36 -8 50 -11 60 -12 70 -14 89 -25 12 -6 21
-8 21 -6 0 13 205 -85 220 -105 3 -3 12 -8 19 -11 10 -3 -2 -16 -35 -38 -55
-38 -160 -139 -191 -185 -68 -100 -93 -178 -88 -272 4 -78 22 -127 72 -197 26
-37 32 -51 22 -57 -7 -4 -17 -5 -21 -2 -5 2 -15 -1 -23 -7 -8 -7 -15 -10 -15
-7 0 3 -24 0 -52 -7 -29 -6 -68 -11 -85 -11 -18 0 -33 -2 -33 -5 0 -7 -89 -5
-96 3 -3 3 -16 2 -28 -2 -19 -6 -42 -7 -48 -1 -2 1 -21 3 -43 5 -46 5 -89 11
-125 19 -14 4 -41 8 -60 11 -19 3 -46 7 -60 10 -14 3 -36 8 -50 11 -13 3 -38
11 -55 19 -16 8 -57 24 -90 36 -45 17 -74 37 -117 81 -32 33 -57 63 -56 66 1
4 -6 23 -14 42 -23 50 -32 181 -18 244 17 72 64 156 113 203 95 90 257 169
392 190 17 3 46 8 65 12 40 8 302 6 340 -3z m1260 -41 c54 -8 85 -13 88 -14 1
-1 3 -1 5 0 5 2 96 -35 146 -59 129 -64 210 -180 205 -293 -4 -92 -48 -176
-140 -266 -42 -40 -82 -73 -90 -73 -8 0 -14 -4 -14 -8 0 -10 -131 -78 -142
-74 -5 1 -8 -2 -8 -7 0 -5 -15 -12 -32 -16 -18 -4 -35 -9 -38 -10 -3 -1 -16
-6 -30 -12 -14 -6 -38 -13 -55 -17 -16 -3 -40 -9 -52 -11 -13 -3 -33 -7 -45
-10 -13 -3 -44 -7 -70 -9 -26 -3 -52 -7 -58 -11 -5 -3 -10 -1 -10 6 0 8 -4 8
-12 2 -18 -14 -194 -5 -273 14 -16 4 -33 6 -37 5 -5 -1 -8 6 -8 15 0 9 3 13 6
10 8 -8 62 61 102 129 101 173 61 387 -102 545 l-46 45 94 37 c118 46 209 71
311 83 28 4 51 7 52 8 5 4 218 -3 253 -9z m-702 -305 c21 -45 26 -70 27 -135
0 -108 -30 -174 -121 -261 -36 -35 -69 -64 -73 -64 -4 0 -27 19 -50 41 -58 57
-93 129 -93 193 -1 111 41 190 153 286 l73 63 29 -34 c16 -19 41 -59 55 -89z"/>
<path d="M614 1068 c-53 -11 -102 -58 -110 -106 -8 -52 -8 -53 0 -95 25 -116
224 -144 308 -43 42 51 31 161 -22 211 -16 16 -30 25 -30 21 0 -5 -6 -4 -13 2
-18 15 -85 20 -133 10z m141 -101 c18 -43 10 -96 -19 -126 -34 -33 -107 -35
-135 -2 -24 28 -35 72 -26 110 19 86 146 98 180 18z"/>
<path d="M1918 1066 c-72 -22 -108 -71 -110 -152 -2 -92 64 -149 172 -149 71
0 110 17 145 63 29 39 28 140 -1 179 -44 59 -128 83 -206 59z m135 -78 c28
-38 27 -111 -2 -142 -42 -45 -124 -39 -152 11 -26 44 -18 111 16 141 39 33
109 28 138 -10z"/>
<path d="M159 1058 c-4 -47 -3 -288 1 -289 3 0 47 -2 98 -3 136 -3 191 22 192
87 0 27 -30 67 -50 67 -6 0 -2 9 9 21 38 41 30 91 -19 116 -34 17 -230 18
-231 1z m183 -44 c23 -7 30 -31 12 -49 -10 -10 -34 -15 -70 -15 l-54 0 0 35 0
34 48 0 c26 0 54 -3 64 -5z m25 -141 c21 -32 3 -51 -52 -53 -84 -4 -85 -4 -85
38 l0 39 61 0 c53 0 62 -3 76 -24z"/>
<path d="M899 1068 c-4 -12 -3 -280 1 -290 4 -10 35 -13 123 -13 64 0 118 3
118 8 7 42 7 42 -84 42 -80 0 -87 2 -88 20 -1 11 -1 68 -1 128 l-1 107 -33 0
c-19 0 -34 -1 -35 -2z"/>
<path d="M1194 920 c1 -93 5 -150 11 -151 5 -1 65 -2 133 -3 l122 -1 0 26 c0
27 0 27 -77 27 -133 0 -123 -6 -114 74 1 4 25 7 54 7 95 -2 115 1 120 14 11
30 -10 39 -94 41 -90 1 -86 -1 -80 56 1 7 26 10 64 9 119 -3 123 -2 123 26 l0
25 -131 0 -131 0 0 -150z"/>
<path d="M1528 1065 c-3 -1 -6 -271 -2 -285 3 -12 26 -15 124 -15 l120 -1 0
27 c0 27 -1 27 -67 27 -121 0 -109 -13 -108 115 1 61 -1 118 -3 125 -3 9 -39
13 -64 7z"/>
<path d="M2383 970 c-76 -46 -76 -151 0 -192 110 -59 239 37 194 144 -26 63
-128 89 -194 48z m92 -35 c49 0 58 -95 10 -117 -48 -22 -78 -1 -90 61 -4 23
43 79 54 64 3 -4 15 -8 26 -8z"/>
<path d="M2639 975 c0 -5 -1 -50 -2 -99 -2 -96 5 -114 44 -111 21 1 23 7 25
68 4 86 15 107 54 102 16 -2 30 -1 30 3 0 4 3 16 6 27 4 17 0 21 -27 23 -17 1
-38 -3 -45 -9 -10 -8 -18 -8 -27 -1 -16 14 -57 12 -58 -3z"/>
<path d="M2868 974 c-36 -19 -48 -43 -48 -98 0 -83 73 -133 142 -99 35 17 35
17 34 -13 -1 -14 -10 -30 -19 -36 -19 -10 -59 -8 -68 5 -8 11 -59 19 -76 13
-11 -5 -11 -10 -3 -26 13 -25 48 -39 98 -41 66 -3 80 1 108 25 28 23 28 25 29
154 l2 130 -30 -2 c-17 -1 -33 -8 -35 -14 -3 -9 -10 -8 -25 3 -27 19 -74 19
-109 -1z m115 -44 c15 -13 17 -81 4 -95 -42 -41 -101 -14 -99 46 1 56 57 84
95 49z"/>
<path d="M2212 821 c-5 -4 -8 -18 -8 -32 0 -22 4 -25 29 -24 32 2 47 18 40 44
-4 16 -44 24 -61 12z"/>
</g>
</svg>
