<?xml version="1.0" standalone="no"?>
<!DOCTYPE svg PUBLIC "-//W3C//DTD SVG 20010904//EN"
 "http://www.w3.org/TR/2001/REC-SVG-20010904/DTD/svg10.dtd">
<svg version="1.0" xmlns="http://www.w3.org/2000/svg"
 width="240.000000pt" height="240.000000pt" viewBox="0 0 240.000000 240.000000"
 preserveAspectRatio="xMidYMid meet">
<metadata>
Created by potrace 1.11, written by Peter Selinger 2001-2013
</metadata>
<g transform="translate(0.000000,240.000000) scale(0.100000,-0.100000)"
fill="#000000" stroke="none">
<path d="M605 1785 c-212 -38 -382 -142 -451 -277 -23 -44 -28 -65 -27 -128 0
-100 16 -132 116 -234 135 -139 276 -193 522 -203 118 -4 156 -2 238 16 54 11
119 30 145 42 43 19 45 22 28 32 -10 7 -37 26 -60 42 l-41 30 -55 -18 c-41
-14 -88 -19 -180 -20 -223 -2 -449 63 -518 150 -43 55 -53 86 -55 173 -1 59 3
86 21 125 131 286 706 338 967 87 67 -65 95 -123 95 -198 -1 -77 -26 -132 -90
-193 l-52 -50 24 -14 c13 -8 40 -21 60 -28 34 -11 39 -11 59 7 57 51 109 163
109 233 0 38 -20 102 -47 154 -18 36 -121 147 -135 147 -6 0 -22 9 -38 20 -38
27 -173 80 -245 97 -92 20 -296 25 -390 8z"/>
<path d="M182 832 c-9 -6 -12 -35 -10 -108 l3 -99 79 -3 c93 -3 126 11 126 58
0 17 -7 33 -17 39 -15 8 -16 13 -5 30 30 51 1 78 -94 86 -38 3 -75 2 -82 -3z
m127 -41 c26 -17 4 -41 -37 -41 -45 0 -52 4 -45 31 6 21 55 27 82 10z m18 -97
c9 -23 -23 -44 -64 -44 -30 0 -33 3 -33 30 0 29 2 30 45 30 33 0 47 -5 52 -16z"/>
<path d="M484 826 c-43 -19 -64 -53 -64 -104 0 -84 70 -122 178 -97 28 7 62
60 62 98 0 43 -28 87 -65 103 -42 17 -71 17 -111 0z m105 -52 c28 -35 26 -69
-4 -99 -32 -33 -68 -32 -95 2 -17 21 -20 36 -16 63 10 63 77 83 115 34z"/>
<path d="M711 831 c-8 -5 -11 -38 -9 -107 l3 -99 84 0 c57 0 86 4 88 12 3 8
-15 13 -59 15 l-63 3 -3 87 c-3 86 -12 106 -41 89z"/>
<path d="M927 834 c-4 -4 -7 -54 -7 -111 l0 -104 90 3 c106 4 126 22 28 26
-47 2 -68 7 -72 17 -12 32 5 44 62 47 45 2 58 7 60 21 3 15 -5 17 -57 17 -62
0 -75 7 -65 34 5 12 21 16 71 16 56 0 64 2 61 18 -3 14 -16 17 -84 20 -44 1
-83 0 -87 -4z"/>
<path d="M1433 833 c-75 -15 -105 -130 -48 -183 74 -70 206 -26 209 68 1 54
-20 88 -66 106 -38 16 -53 17 -95 9z m87 -53 c43 -43 13 -130 -45 -130 -60 0
-92 100 -43 134 31 22 64 20 88 -4z"/>
<path d="M1150 725 l0 -106 88 3 c99 3 114 20 25 28 l-58 5 -3 88 c-3 85 -3
87 -27 87 -25 0 -25 0 -25 -105z"/>
<path d="M1784 773 c-50 -10 -76 -89 -44 -128 32 -38 119 -34 153 6 50 61 -22
141 -109 122z m64 -45 c7 -7 12 -21 12 -33 0 -47 -62 -63 -81 -21 -22 47 33
90 69 54z"/>
<path d="M1950 698 c0 -75 1 -79 21 -76 17 2 21 11 24 51 3 53 9 63 40 69 11
2 20 10 20 18 0 11 -13 15 -52 16 l-53 1 0 -79z"/>
<path d="M2105 757 c-22 -19 -29 -33 -29 -62 0 -51 34 -79 86 -72 29 4 38 2
38 -9 0 -22 -27 -28 -68 -16 -40 12 -54 8 -46 -13 10 -25 76 -39 118 -25 43
14 48 28 44 135 -3 74 -5 80 -23 77 -28 -4 -36 -4 -66 3 -19 5 -33 0 -54 -18z
m76 -17 c23 -13 26 -62 4 -80 -25 -21 -55 -3 -55 34 0 17 5 37 12 44 15 15 15
15 39 2z"/>
<path d="M1637 646 c-7 -18 1 -26 25 -26 11 0 18 7 18 20 0 23 -35 28 -43 6z"/>
</g>
</svg>
